<svg xmlns="http://www.w3.org/2000/svg" enable-background="new 0 0 32 32" viewBox="0 0 32 32"><path fill="#E0B41E" d="M3.5,22V10h25l0.001,12H3.5z"/><path d="M28.5,8h-25c-1.103,0-2,0.897-2,2v12c0,1.103,0.897,2,2,2h25c1.103,0,2-0.897,2-2V10C30.5,8.897,29.603,8,28.5,8z M3.5,22V10h25l0.001,12H3.5z M6.5,13v6c0,0.552-0.448,1-1,1s-1-0.448-1-1v-6c0-0.552,0.448-1,1-1S6.5,12.448,6.5,13z M15.5,13v6c0,0.552-0.448,1-1,1s-1-0.448-1-1v-1.764l-1.105,2.211c-0.339,0.678-1.45,0.678-1.789,0L9.5,17.236V19c0,0.552-0.448,1-1,1s-1-0.448-1-1v-6c0-0.464,0.319-0.867,0.77-0.973c0.455-0.107,0.917,0.111,1.125,0.526l2.105,4.211l2.105-4.211c0.208-0.415,0.67-0.634,1.125-0.526C15.181,12.133,15.5,12.536,15.5,13z M19.5,12h-2c-0.552,0-1,0.448-1,1v6c0,0.552,0.448,1,1,1h2c1.103,0,2-0.897,2-2v-4C21.5,12.897,20.603,12,19.5,12z M19.5,18h-1v-4h1V18z M25.5,14h-1v-1c0-0.552-0.448-1-1-1s-1,0.448-1,1v6c0,0.552,0.448,1,1,1h2c1.103,0,2-0.897,2-2v-2C27.5,14.897,26.603,14,25.5,14z M25.5,16v2h-1v-2l1-0.001V16z"/></svg>